<?xml version="1.0" encoding="UTF-8"?>
<svg id="Layer_1" data-name="Layer 1" xmlns="http://www.w3.org/2000/svg" viewBox="0 0 358.19 283.07">
  <defs>
    <style>
      .cls-1 {
        fill: #fc4e47;
      }

      .cls-2 {
        fill: #848484;
      }

      .cls-3 {
        fill: #c1bfbf;
      }

      .cls-4 {
        fill: #c1c0c0;
      }

      .cls-5 {
        fill: #c1c0bf;
      }

      .cls-6 {
        fill: #858585;
      }

      .cls-7 {
        fill: #c0bfbe;
      }

      .cls-8 {
        fill: #c0bebe;
      }
    </style>
  </defs>
  <g id="Logo">
    <path class="cls-8" d="M215.9,37.39c-13.1,46.81-26.09,93.23-39.09,139.7h-23.25c13.07-46.75,26.03-93.14,39.05-139.7h23.29Z"/>
    <path class="cls-8" d="M281.81,98.85v26.29c-17.91,10.29-35.88,20.62-54.26,31.18v-26.17c10.12-5.94,20.39-11.98,31.16-18.3-10.8-6.25-21.03-12.18-31.31-18.13v-26.36c18.42,10.66,36.41,21.07,54.42,31.49Z"/>
    <path class="cls-8" d="M134.02,130.07v26.09c-18.33-10.52-36.14-20.75-53.88-30.94v-26.47c17.77-10.28,35.6-20.59,53.85-31.15v26.3c-9.98,5.78-20.11,11.66-31.01,17.97,10.68,6.26,20.83,12.21,31.04,18.2Z"/>
    <path class="cls-1" d="M278.32,249.33c9.03-.07,16.84,7.66,16.94,16.74,.09,9.07-7.57,16.89-16.67,17-8.91,.11-16.84-7.7-16.97-16.72-.13-8.89,7.79-16.96,16.71-17.02Zm10.19,16.69c-.1-5.57-4.77-10.09-10.28-9.93-5.44,.15-10.15,5.06-9.98,10.4,.18,5.5,4.83,9.85,10.45,9.77,5.63-.08,9.91-4.55,9.81-10.23Z"/>
    <path class="cls-3" d="M79.64,280.48c-9.36,0-17.08-7.66-16.78-17.03,.29-9.04,7.36-16.59,16.82-16.51,9.8,.08,16.68,7.06,16.84,17.02,.15,9.24-7.47,16.54-16.88,16.53Zm9.95-16.64c0-5.94-4.07-10.1-9.88-10.12-5.34-.01-9.93,4.56-9.93,9.89,0,5.54,4.35,10.45,9.5,10.37,6.85-.11,10.87-5.75,10.3-10.15Z"/>
    <path class="cls-8" d="M145.39,247.05c.46,2.08,.33,4.05,.07,6.55h-12.8c-.62,2.35-.36,4.2-.23,6.47h12.81c.67,2.45,.52,4.5,.14,6.96h-12.67c-.74,2.44-.4,4.49-.32,6.96h12.79c.74,2.22,.52,4.08,.26,6.21h-19.87v-33.15h19.81Z"/>
    <path class="cls-3" d="M55.07,265.95c2.28,5.02,4.33,9.51,6.47,14.22-2.59,.52-4.78,.29-7.25,.21-1.91-4.11-3.85-8.28-5.79-12.45-.27,.03-.54,.06-.82,.1v12.08c-2.37,.52-4.22,.48-6.33,.11v-33.28c4.34-.24,8.65-.77,12.79,.9,6.66,2.69,8.33,10.78,3.36,15.97-.73,.76-1.58,1.4-2.43,2.14Zm-7.17-12c-.66,2.13-.52,4.25-.11,6.36,1.91,.8,3.38-.07,4.82-.69,.81-1.02,1.37-2.01,1.13-3.32-1.03-2.43-2.98-2.94-5.83-2.35Z"/>
    <path class="cls-1" d="M260.57,254.38c-1.54,1.24-3.09,2.49-4.72,3.8-7.08-3.73-11.83-1.9-14.95,2.28-2.83,3.78-2.52,8.78,.56,12.31,3.53,4.06,8.21,4.47,14.43,1.22,1.92,.94,2.97,2.82,4.59,4.1-6.13,6.58-16.56,6.46-23.19-.06-6.65-6.54-6.65-17.15,0-23.64,6.73-6.57,16.86-6.7,23.28-.01Z"/>
    <path class="cls-5" d="M25.12,267.36v12.75c-2.32,.58-4.37,.46-6.67,.11v-33.27c4.42-.28,8.83-.79,13.09,.78,4.31,1.59,7.11,6.67,6.29,10.95-.92,4.82-4.87,8.22-9.75,8.42-.82,.03-1.65,.14-2.96,.26Zm.23-13.21c-.23,2.06-.39,4.11,.11,6.14,4.39,.65,6.03-1.14,4.98-5.31-1.44-1.27-3.06-1.65-5.09-.82Z"/>
    <path class="cls-4" d="M205.87,246.96c.46,2.16,.17,4.52-.34,6.74-2.15,0-5.3-.02-8.79-.02v26.45c-2.56,.53-4.61,.37-7.07,.15v-26.53h-9.21c-.51-2.47-.48-4.52-.08-6.79h25.49Z"/>
    <path class="cls-3" d="M115.68,247.09c2.31-.48,4.08-.47,5.78-.14,.88,.85,.62,1.86,.62,2.78,.02,6.36,.05,12.73-.02,19.09-.05,4.88-3.6,9.34-8.62,11.03-5.03,1.7-10.25,.27-13.57-3.82,.9-1.79,2.66-2.84,3.8-4.18,1.39-.28,1.92,.75,2.76,1.13,4.46,2.03,9.15-.81,9.23-5.74,.08-5.51,.02-11.03,.02-16.54,0-1.15,0-2.29,0-3.61Z"/>
    <path class="cls-2" d="M215.73,258.88c-.24,1.93-1.33,3.19-3.48,3.15-2.13-.04-3.39-1.35-3.41-3.39-.02-2.23,1.39-3.56,3.63-3.46,2.08,.09,3.18,1.44,3.25,3.7Z"/>
    <path class="cls-6" d="M215.75,277.01c-.11,2.06-1.14,3.35-3.28,3.46-2.14,.11-3.48-1.1-3.62-3.14-.16-2.24,1.21-3.62,3.42-3.68,2.06-.05,3.27,1.2,3.48,3.35Z"/>
    <path class="cls-1" d="M321.7,257c-4.38-6.63-15.47-10.04-23.03-7.07,0,10.38-.02,20.77-.03,31.15-.1,.61-.28,1.23,.29,1.9,3.18,0,6.45,.16,9.71-.04,4.25-.26,7.99-1.91,11.02-4.97,5.56-5.61,6.41-14.35,2.04-20.97Zm-5.33,14.47c-2.52,4.06-6.31,5.31-11.24,4.53v-19.72c4.28-.69,7.82,.37,10.53,3.66,2.71,3.29,3,7.84,.71,11.53Z"/>
    <path class="cls-1" d="M65.89,219.13s.06,.04,.09,.07c1-.7,.53-1.75,.54-2.63,.04-7.22,.03-14.43,0-21.65,0-.91,.3-1.93-.73-2.87-3.63,.56-7.46,.53-11.23-.13-5.74-1.01-10.12-3.99-11.8-9.77-1.01-3.48-.81-7.21-.05-10.75,2.28-10.59,3.36-21.35,4.87-32.05,.96-6.8-.95-13-4.32-18.82-2.5-4.32-5.9-7.89-9.62-10.72,2.01-2.16,3.82-4.07,5.6-6.02,6.11-6.68,9.83-14.01,8.42-23.59-1.45-9.86-3.15-19.67-4.88-29.48-2.33-13.17,1.59-20.68,15.21-22.48,2.79-.37,5.6-.59,8.3-.87V.31c-.43-.14-.63-.25-.83-.26C56.99,.03,48.5,0,40.01,0c-10.17,0-17.89,5.17-21.75,14.56-3.55,8.63-4.09,17.65-3.56,26.84,.73,12.62,4.82,24.75,5.08,37.47,.1,4.72-1.13,8.52-4.12,11.91-1.96,2.22-4.09,4.28-6.54,5.96-3.04,2.08-6.1,4.13-9.12,6.17v13.62c6.11,3.28,11.7,7.21,16.19,12.59,2.14,2.57,3.19,5.3,3.27,8.67,.25,10.57-1.02,20.97-3.34,31.23-2.07,9.13-3.91,18.12-1.96,27.64,2.32,11.29,10.18,22.46,21.89,22.38"/>
    <path class="cls-1" d="M292.31,219.13s-.06,.04-.09,.07c-1-.7-.53-1.75-.54-2.63-.04-7.22-.03-14.43,0-21.65,0-.91-.3-1.93,.73-2.87,3.63,.56,7.46,.53,11.23-.13,5.74-1.01,10.12-3.99,11.8-9.77,1.01-3.48,.81-7.21,.05-10.75-2.28-10.59-3.36-21.35-4.87-32.05-.96-6.8,.95-13,4.32-18.82,2.5-4.32,5.9-7.89,9.62-10.72-2.01-2.16-3.82-4.07-5.6-6.02-6.11-6.68-9.83-14.01-8.42-23.59,1.45-9.86,3.15-19.67,4.88-29.48,2.33-13.17-1.59-20.68-15.21-22.48-2.79-.37-5.6-.59-8.3-.87,0-9.21,0-18.17,0-27.06,.43-.14,.63-.25,.83-.26,8.49-.03,16.99-.06,25.48-.05,10.17,0,17.89,5.17,21.75,14.56,3.55,8.63,4.09,17.65,3.56,26.84-.73,12.62-4.82,24.75-5.08,37.47-.1,4.72,1.13,8.52,4.12,11.91,1.96,2.22,4.09,4.28,6.54,5.96,3.04,2.08,6.1,4.13,9.12,6.17,0,4.58,0,9.03,0,13.62-6.11,3.28-11.7,7.21-16.19,12.59-2.14,2.57-3.19,5.3-3.27,8.67-.25,10.57,1.02,20.97,3.34,31.23,2.07,9.13,3.91,18.12,1.96,27.64-2.32,11.29-10.18,22.46-21.89,22.38"/>
    <path class="cls-1" d="M347.83,249.37c.46,2.08,.33,4.05,.07,6.55h-12.8c-.62,2.35-.36,4.2-.23,6.47h12.81c.67,2.45,.52,4.5,.14,6.96h-12.67c-.74,2.44-.4,4.49-.32,6.96h12.79c.74,2.22,.52,4.08,.26,6.21h-19.87v-33.15h19.81Z"/>
    <path class="cls-7" d="M176.89,251.69c-1.54,1.24-3.09,2.49-4.72,3.8-7.08-3.73-11.83-1.9-14.95,2.28-2.83,3.78-2.52,8.78,.56,12.31,3.53,4.06,8.21,4.47,14.43,1.22,1.92,.94,2.97,2.82,4.59,4.1-6.13,6.58-16.56,6.46-23.19-.06-6.65-6.54-6.65-17.15,0-23.64,6.73-6.57,16.86-6.7,23.28-.01Z"/>
  </g>
</svg>